# xmcd CD database file
#
# Track frame offsets:
#	150
#	16893
#	35135
#	63103
#	85645
#	103788
#	121498
#	147458
#	177133
#	196863
#
# Disc length: 3047 seconds
#
# Revision: 2
# Processed by: cddbd v1.5.2PL0 Copyright (c) Steve Scherf et al.
# Submitted via: CDex 1.70beta2
#
DISCID=810be50a
DTITLE=さだまさし - 日本架空説
DYEAR=2000
DGENRE=
TTITLE0=飛沫
TTITLE1=風炎
TTITLE2=アパート物語
TTITLE3=城のある町
TTITLE4=天空の村に月が降る
TTITLE5=The Day After Tomorrow〜明後日まで〜
TTITLE6=舞姫
TTITLE7=八ヶ岳に立つ野ウサギ
TTITLE8=月蝕
TTITLE9=最期の夢
EXTD=YEAR: 2000
EXTT0=
EXTT1=
EXTT2=
EXTT3=
EXTT4=
EXTT5=
EXTT6=
EXTT7=
EXTT8=
EXTT9=
PLAYORDER=
